<mxfile host="app.diagrams.net" agent="Mozilla/5.0 (Windows NT 10.0; Win64; x64) AppleWebKit/537.36 (KHTML, like Gecko) Chrome/126.0.0.0 Safari/537.36 Edg/126.0.0.0" version="24.7.6">
  <diagram name="Page-1" id="55a83fd1-7818-8e21-69c5-c3457e3827bb">
    <mxGraphModel dx="1911" dy="888" grid="1" gridSize="10" guides="1" tooltips="1" connect="1" arrows="1" fold="1" page="1" pageScale="1" pageWidth="1100" pageHeight="850" background="none" math="0" shadow="0">
      <root>
        <mxCell id="0" />
        <mxCell id="1" parent="0" />
        <mxCell id="69ecfefc5c41e42c-3" value="&lt;font style=&quot;font-size: 18px;&quot;&gt;pfSense&lt;/font&gt;&lt;div&gt;&lt;font style=&quot;font-size: 18px;&quot;&gt;Router &amp;amp; FW&lt;/font&gt;&lt;/div&gt;" style="image;html=1;labelBackgroundColor=#ffffff;image=img/lib/clip_art/networking/Firewall_128x128.png;rounded=1;shadow=0;comic=0;strokeWidth=2;fontSize=22;labelPosition=right;verticalLabelPosition=middle;align=left;verticalAlign=middle;" parent="1" vertex="1">
          <mxGeometry x="451" y="270" width="80" height="80" as="geometry" />
        </mxCell>
        <mxCell id="FnHoCbj98JzVe04_ML1R-9" value="" style="edgeStyle=orthogonalEdgeStyle;rounded=0;orthogonalLoop=1;jettySize=auto;html=1;strokeColor=#7EA6E0;shape=link;" edge="1" parent="1" source="69ecfefc5c41e42c-9" target="FnHoCbj98JzVe04_ML1R-3">
          <mxGeometry relative="1" as="geometry" />
        </mxCell>
        <mxCell id="69ecfefc5c41e42c-9" value="&lt;font style=&quot;font-size: 18px;&quot;&gt;Laptop&lt;/font&gt;" style="image;html=1;labelBackgroundColor=#ffffff;image=img/lib/clip_art/computers/Netbook_128x128.png;rounded=1;shadow=0;comic=0;strokeColor=#000000;strokeWidth=2;fillColor=#FFFFFF;fontSize=22;fontColor=#000000;" parent="1" vertex="1">
          <mxGeometry x="300" y="70" width="80" height="80" as="geometry" />
        </mxCell>
        <mxCell id="FnHoCbj98JzVe04_ML1R-102" value="" style="edgeStyle=orthogonalEdgeStyle;shape=link;rounded=0;orthogonalLoop=1;jettySize=auto;html=1;strokeColor=#7EA6E0;" edge="1" parent="1" source="FnHoCbj98JzVe04_ML1R-3" target="FnHoCbj98JzVe04_ML1R-31">
          <mxGeometry relative="1" as="geometry" />
        </mxCell>
        <mxCell id="FnHoCbj98JzVe04_ML1R-3" value="&lt;p&gt;&lt;br&gt;&lt;/p&gt;" style="verticalLabelPosition=bottom;html=1;verticalAlign=top;align=center;strokeColor=none;fillColor=#00BEF2;shape=mxgraph.azure.virtual_machine;" vertex="1" parent="1">
          <mxGeometry x="451" y="80" width="79" height="60" as="geometry" />
        </mxCell>
        <mxCell id="FnHoCbj98JzVe04_ML1R-15" value="&lt;font style=&quot;font-size: 18px;&quot;&gt;Virtual&amp;nbsp;&lt;/font&gt;&lt;div&gt;&lt;font style=&quot;font-size: 18px;&quot;&gt;Box&lt;/font&gt;&lt;/div&gt;" style="text;html=1;align=center;verticalAlign=middle;resizable=0;points=[];autosize=1;strokeColor=none;fillColor=none;" vertex="1" parent="1">
          <mxGeometry x="530" y="80" width="80" height="60" as="geometry" />
        </mxCell>
        <mxCell id="FnHoCbj98JzVe04_ML1R-20" value="&lt;font style=&quot;font-size: 14px;&quot; color=&quot;#ea6b66&quot;&gt;10.0.2.16/24&lt;/font&gt;" style="text;html=1;align=center;verticalAlign=middle;resizable=0;points=[];autosize=1;strokeColor=none;fillColor=none;" vertex="1" parent="1">
          <mxGeometry x="510" y="190" width="100" height="30" as="geometry" />
        </mxCell>
        <mxCell id="FnHoCbj98JzVe04_ML1R-100" value="" style="edgeStyle=orthogonalEdgeStyle;shape=link;rounded=0;orthogonalLoop=1;jettySize=auto;html=1;strokeColor=#7EA6E0;" edge="1" parent="1" source="FnHoCbj98JzVe04_ML1R-22" target="FnHoCbj98JzVe04_ML1R-29">
          <mxGeometry relative="1" as="geometry" />
        </mxCell>
        <mxCell id="FnHoCbj98JzVe04_ML1R-22" value="" style="image;aspect=fixed;perimeter=ellipsePerimeter;html=1;align=center;shadow=0;dashed=0;spacingTop=3;image=img/lib/active_directory/internet_globe.svg;" vertex="1" parent="1">
          <mxGeometry x="40" y="77.5" width="65" height="65" as="geometry" />
        </mxCell>
        <mxCell id="FnHoCbj98JzVe04_ML1R-28" value="&lt;font style=&quot;font-size: 18px;&quot;&gt;Internet&lt;/font&gt;" style="text;html=1;align=center;verticalAlign=middle;resizable=0;points=[];autosize=1;strokeColor=none;fillColor=none;" vertex="1" parent="1">
          <mxGeometry x="32.5" y="150" width="80" height="40" as="geometry" />
        </mxCell>
        <mxCell id="FnHoCbj98JzVe04_ML1R-101" value="" style="edgeStyle=orthogonalEdgeStyle;shape=link;rounded=0;orthogonalLoop=1;jettySize=auto;html=1;strokeColor=#7EA6E0;" edge="1" parent="1" source="FnHoCbj98JzVe04_ML1R-29" target="69ecfefc5c41e42c-9">
          <mxGeometry relative="1" as="geometry" />
        </mxCell>
        <mxCell id="FnHoCbj98JzVe04_ML1R-29" value="&lt;font style=&quot;font-size: 18px;&quot;&gt;Router&lt;/font&gt;" style="image;html=1;image=img/lib/clip_art/networking/Router_Icon_128x128.png" vertex="1" parent="1">
          <mxGeometry x="160" y="70" width="80" height="80" as="geometry" />
        </mxCell>
        <mxCell id="FnHoCbj98JzVe04_ML1R-30" value="" style="whiteSpace=wrap;html=1;aspect=fixed;fillColor=#F19C99;" vertex="1" parent="1">
          <mxGeometry x="466" y="180" width="50" height="50" as="geometry" />
        </mxCell>
        <mxCell id="FnHoCbj98JzVe04_ML1R-103" value="" style="edgeStyle=orthogonalEdgeStyle;shape=link;rounded=0;orthogonalLoop=1;jettySize=auto;html=1;strokeColor=#7EA6E0;" edge="1" parent="1" source="FnHoCbj98JzVe04_ML1R-31" target="69ecfefc5c41e42c-3">
          <mxGeometry relative="1" as="geometry" />
        </mxCell>
        <mxCell id="FnHoCbj98JzVe04_ML1R-31" value="" style="shape=image;html=1;verticalAlign=top;verticalLabelPosition=bottom;labelBackgroundColor=#ffffff;imageAspect=0;aspect=fixed;image=https://cdn1.iconfinder.com/data/icons/bootstrap-vol-2/16/ethernet-128.png" vertex="1" parent="1">
          <mxGeometry x="467" y="181" width="48" height="48" as="geometry" />
        </mxCell>
        <mxCell id="FnHoCbj98JzVe04_ML1R-32" value="&lt;font style=&quot;font-size: 14px;&quot; color=&quot;#ea6b66&quot;&gt;10.0.0.1/24&lt;/font&gt;" style="text;html=1;align=center;verticalAlign=middle;resizable=0;points=[];autosize=1;strokeColor=none;fillColor=none;" vertex="1" parent="1">
          <mxGeometry x="40" y="438" width="90" height="30" as="geometry" />
        </mxCell>
        <mxCell id="FnHoCbj98JzVe04_ML1R-33" value="" style="whiteSpace=wrap;html=1;aspect=fixed;fillColor=#F19C99;" vertex="1" parent="1">
          <mxGeometry x="1020" y="60" width="40" height="40" as="geometry" />
        </mxCell>
        <mxCell id="FnHoCbj98JzVe04_ML1R-35" value="&lt;font style=&quot;font-size: 14px;&quot; color=&quot;#ea6b66&quot;&gt;10.8.8.1/24&lt;/font&gt;" style="text;html=1;align=center;verticalAlign=middle;resizable=0;points=[];autosize=1;strokeColor=none;fillColor=none;" vertex="1" parent="1">
          <mxGeometry x="210" y="438" width="90" height="30" as="geometry" />
        </mxCell>
        <mxCell id="FnHoCbj98JzVe04_ML1R-38" value="" style="whiteSpace=wrap;html=1;aspect=fixed;fillColor=#FFCE9F;" vertex="1" parent="1">
          <mxGeometry x="1020" y="120" width="40" height="40" as="geometry" />
        </mxCell>
        <mxCell id="FnHoCbj98JzVe04_ML1R-39" value="" style="whiteSpace=wrap;html=1;aspect=fixed;fillColor=#B9E0A5;" vertex="1" parent="1">
          <mxGeometry x="1020" y="240" width="40" height="40" as="geometry" />
        </mxCell>
        <mxCell id="FnHoCbj98JzVe04_ML1R-40" value="" style="whiteSpace=wrap;html=1;aspect=fixed;fillColor=#A9C4EB;" vertex="1" parent="1">
          <mxGeometry x="1020" y="300" width="40" height="40" as="geometry" />
        </mxCell>
        <mxCell id="FnHoCbj98JzVe04_ML1R-41" value="" style="whiteSpace=wrap;html=1;aspect=fixed;fillColor=#FFF4C3;" vertex="1" parent="1">
          <mxGeometry x="1020" y="180" width="40" height="40" as="geometry" />
        </mxCell>
        <mxCell id="FnHoCbj98JzVe04_ML1R-57" value="" style="whiteSpace=wrap;html=1;aspect=fixed;fillColor=#FFCE9F;" vertex="1" parent="1">
          <mxGeometry x="107.5" y="388" width="50" height="50" as="geometry" />
        </mxCell>
        <mxCell id="FnHoCbj98JzVe04_ML1R-111" style="edgeStyle=none;shape=link;rounded=0;orthogonalLoop=1;jettySize=auto;html=1;exitX=0.5;exitY=0;exitDx=0;exitDy=0;strokeColor=#7EA6E0;" edge="1" parent="1" source="FnHoCbj98JzVe04_ML1R-58">
          <mxGeometry relative="1" as="geometry">
            <mxPoint x="830" y="360" as="targetPoint" />
            <Array as="points">
              <mxPoint x="134" y="360" />
              <mxPoint x="830" y="360" />
            </Array>
          </mxGeometry>
        </mxCell>
        <mxCell id="FnHoCbj98JzVe04_ML1R-58" value="" style="shape=image;html=1;verticalAlign=top;verticalLabelPosition=bottom;labelBackgroundColor=#ffffff;imageAspect=0;aspect=fixed;image=https://cdn1.iconfinder.com/data/icons/bootstrap-vol-2/16/ethernet-128.png" vertex="1" parent="1">
          <mxGeometry x="109.5" y="390" width="48" height="48" as="geometry" />
        </mxCell>
        <mxCell id="FnHoCbj98JzVe04_ML1R-59" value="" style="whiteSpace=wrap;html=1;aspect=fixed;fillColor=#FFF4C3;" vertex="1" parent="1">
          <mxGeometry x="275" y="388" width="50" height="50" as="geometry" />
        </mxCell>
        <mxCell id="FnHoCbj98JzVe04_ML1R-60" value="" style="whiteSpace=wrap;html=1;aspect=fixed;fillColor=#B9E0A5;" vertex="1" parent="1">
          <mxGeometry x="455" y="388" width="50" height="50" as="geometry" />
        </mxCell>
        <mxCell id="FnHoCbj98JzVe04_ML1R-61" value="" style="whiteSpace=wrap;html=1;aspect=fixed;fillColor=#A9C4EB;" vertex="1" parent="1">
          <mxGeometry x="635" y="388" width="50" height="50" as="geometry" />
        </mxCell>
        <mxCell id="FnHoCbj98JzVe04_ML1R-62" value="" style="whiteSpace=wrap;html=1;aspect=fixed;fillColor=#C3ABD0;" vertex="1" parent="1">
          <mxGeometry x="805" y="388" width="50" height="50" as="geometry" />
        </mxCell>
        <mxCell id="FnHoCbj98JzVe04_ML1R-117" value="" style="edgeStyle=none;shape=link;rounded=0;orthogonalLoop=1;jettySize=auto;html=1;strokeColor=#7EA6E0;" edge="1" parent="1" source="FnHoCbj98JzVe04_ML1R-65" target="FnHoCbj98JzVe04_ML1R-89">
          <mxGeometry relative="1" as="geometry" />
        </mxCell>
        <mxCell id="FnHoCbj98JzVe04_ML1R-147" value="" style="edgeStyle=none;shape=link;rounded=0;orthogonalLoop=1;jettySize=auto;html=1;strokeColor=#7EA6E0;" edge="1" parent="1" source="FnHoCbj98JzVe04_ML1R-65" target="FnHoCbj98JzVe04_ML1R-146">
          <mxGeometry relative="1" as="geometry" />
        </mxCell>
        <mxCell id="FnHoCbj98JzVe04_ML1R-65" value="" style="shape=image;html=1;verticalAlign=top;verticalLabelPosition=bottom;labelBackgroundColor=#ffffff;imageAspect=0;aspect=fixed;image=https://cdn1.iconfinder.com/data/icons/bootstrap-vol-2/16/ethernet-128.png" vertex="1" parent="1">
          <mxGeometry x="277" y="389" width="48" height="48" as="geometry" />
        </mxCell>
        <mxCell id="FnHoCbj98JzVe04_ML1R-141" value="" style="edgeStyle=none;shape=link;rounded=0;orthogonalLoop=1;jettySize=auto;html=1;strokeColor=#7EA6E0;" edge="1" parent="1" source="FnHoCbj98JzVe04_ML1R-66" target="FnHoCbj98JzVe04_ML1R-91">
          <mxGeometry relative="1" as="geometry" />
        </mxCell>
        <mxCell id="FnHoCbj98JzVe04_ML1R-66" value="" style="shape=image;html=1;verticalAlign=top;verticalLabelPosition=bottom;labelBackgroundColor=#ffffff;imageAspect=0;aspect=fixed;image=https://cdn1.iconfinder.com/data/icons/bootstrap-vol-2/16/ethernet-128.png" vertex="1" parent="1">
          <mxGeometry x="457" y="390" width="48" height="48" as="geometry" />
        </mxCell>
        <mxCell id="FnHoCbj98JzVe04_ML1R-140" value="" style="edgeStyle=none;shape=link;rounded=0;orthogonalLoop=1;jettySize=auto;html=1;strokeColor=#7EA6E0;" edge="1" parent="1" source="FnHoCbj98JzVe04_ML1R-67" target="FnHoCbj98JzVe04_ML1R-97">
          <mxGeometry relative="1" as="geometry" />
        </mxCell>
        <mxCell id="FnHoCbj98JzVe04_ML1R-149" value="" style="edgeStyle=none;shape=link;rounded=0;orthogonalLoop=1;jettySize=auto;html=1;strokeColor=#7EA6E0;" edge="1" parent="1" source="FnHoCbj98JzVe04_ML1R-67" target="FnHoCbj98JzVe04_ML1R-148">
          <mxGeometry relative="1" as="geometry" />
        </mxCell>
        <mxCell id="FnHoCbj98JzVe04_ML1R-67" value="" style="shape=image;html=1;verticalAlign=top;verticalLabelPosition=bottom;labelBackgroundColor=#ffffff;imageAspect=0;aspect=fixed;image=https://cdn1.iconfinder.com/data/icons/bootstrap-vol-2/16/ethernet-128.png" vertex="1" parent="1">
          <mxGeometry x="636" y="389" width="48" height="48" as="geometry" />
        </mxCell>
        <mxCell id="FnHoCbj98JzVe04_ML1R-112" style="edgeStyle=none;shape=link;rounded=0;orthogonalLoop=1;jettySize=auto;html=1;exitX=0.5;exitY=0;exitDx=0;exitDy=0;strokeColor=#7EA6E0;" edge="1" parent="1" source="FnHoCbj98JzVe04_ML1R-68">
          <mxGeometry relative="1" as="geometry">
            <mxPoint x="831" y="360" as="targetPoint" />
          </mxGeometry>
        </mxCell>
        <mxCell id="FnHoCbj98JzVe04_ML1R-139" value="" style="edgeStyle=none;shape=link;rounded=0;orthogonalLoop=1;jettySize=auto;html=1;strokeColor=#7EA6E0;" edge="1" parent="1" source="FnHoCbj98JzVe04_ML1R-68" target="FnHoCbj98JzVe04_ML1R-93">
          <mxGeometry relative="1" as="geometry" />
        </mxCell>
        <mxCell id="FnHoCbj98JzVe04_ML1R-68" value="" style="shape=image;html=1;verticalAlign=top;verticalLabelPosition=bottom;labelBackgroundColor=#ffffff;imageAspect=0;aspect=fixed;image=https://cdn1.iconfinder.com/data/icons/bootstrap-vol-2/16/ethernet-128.png" vertex="1" parent="1">
          <mxGeometry x="807" y="390" width="48" height="48" as="geometry" />
        </mxCell>
        <mxCell id="FnHoCbj98JzVe04_ML1R-69" value="&lt;font style=&quot;font-size: 14px;&quot; color=&quot;#ea6b66&quot;&gt;10.10.10.1/24&lt;/font&gt;" style="text;html=1;align=center;verticalAlign=middle;resizable=0;points=[];autosize=1;strokeColor=none;fillColor=none;" vertex="1" parent="1">
          <mxGeometry x="370" y="437" width="110" height="30" as="geometry" />
        </mxCell>
        <mxCell id="FnHoCbj98JzVe04_ML1R-70" value="&lt;font style=&quot;font-size: 14px;&quot; color=&quot;#ea6b66&quot;&gt;10.80.80.1/24&lt;/font&gt;" style="text;html=1;align=center;verticalAlign=middle;resizable=0;points=[];autosize=1;strokeColor=none;fillColor=none;" vertex="1" parent="1">
          <mxGeometry x="540" y="438" width="110" height="30" as="geometry" />
        </mxCell>
        <mxCell id="FnHoCbj98JzVe04_ML1R-71" value="&lt;font style=&quot;font-size: 14px;&quot; color=&quot;#ea6b66&quot;&gt;10.88.88.1/24&lt;/font&gt;" style="text;html=1;align=center;verticalAlign=middle;resizable=0;points=[];autosize=1;strokeColor=none;fillColor=none;" vertex="1" parent="1">
          <mxGeometry x="720" y="438" width="110" height="30" as="geometry" />
        </mxCell>
        <mxCell id="FnHoCbj98JzVe04_ML1R-72" value="" style="whiteSpace=wrap;html=1;aspect=fixed;fillColor=#C3ABD0;" vertex="1" parent="1">
          <mxGeometry x="1020" y="360" width="40" height="40" as="geometry" />
        </mxCell>
        <mxCell id="FnHoCbj98JzVe04_ML1R-80" value="" style="fontColor=#0066CC;verticalAlign=top;verticalLabelPosition=bottom;labelPosition=center;align=center;html=1;outlineConnect=0;fillColor=#CCCCCC;strokeColor=#6881B3;gradientColor=none;gradientDirection=north;strokeWidth=2;shape=mxgraph.networks.switch;" vertex="1" parent="1">
          <mxGeometry x="792" y="480" width="76" height="20" as="geometry" />
        </mxCell>
        <mxCell id="FnHoCbj98JzVe04_ML1R-83" value="" style="fontColor=#0066CC;verticalAlign=top;verticalLabelPosition=bottom;labelPosition=center;align=center;html=1;outlineConnect=0;fillColor=#CCCCCC;strokeColor=#6881B3;gradientColor=none;gradientDirection=north;strokeWidth=2;shape=mxgraph.networks.switch;" vertex="1" parent="1">
          <mxGeometry x="622" y="480" width="76" height="20" as="geometry" />
        </mxCell>
        <mxCell id="FnHoCbj98JzVe04_ML1R-85" value="" style="fontColor=#0066CC;verticalAlign=top;verticalLabelPosition=bottom;labelPosition=center;align=center;html=1;outlineConnect=0;fillColor=#CCCCCC;strokeColor=#6881B3;gradientColor=none;gradientDirection=north;strokeWidth=2;shape=mxgraph.networks.switch;" vertex="1" parent="1">
          <mxGeometry x="442" y="480" width="76" height="20" as="geometry" />
        </mxCell>
        <mxCell id="FnHoCbj98JzVe04_ML1R-120" style="edgeStyle=orthogonalEdgeStyle;shape=link;rounded=0;orthogonalLoop=1;jettySize=auto;html=1;exitDx=0;exitDy=0;exitPerimeter=0;strokeColor=#7EA6E0;" edge="1" parent="1" source="FnHoCbj98JzVe04_ML1R-121">
          <mxGeometry relative="1" as="geometry">
            <mxPoint x="300" y="520" as="targetPoint" />
            <Array as="points">
              <mxPoint x="240" y="520" />
              <mxPoint x="240" y="520" />
            </Array>
          </mxGeometry>
        </mxCell>
        <mxCell id="FnHoCbj98JzVe04_ML1R-86" value="" style="fontColor=#0066CC;verticalAlign=top;verticalLabelPosition=bottom;labelPosition=center;align=center;html=1;outlineConnect=0;fillColor=#CCCCCC;strokeColor=#6881B3;gradientColor=none;gradientDirection=north;strokeWidth=2;shape=mxgraph.networks.switch;" vertex="1" parent="1">
          <mxGeometry x="263" y="480" width="76" height="20" as="geometry" />
        </mxCell>
        <mxCell id="FnHoCbj98JzVe04_ML1R-115" style="edgeStyle=none;shape=link;rounded=0;orthogonalLoop=1;jettySize=auto;html=1;exitX=0.5;exitY=1;exitDx=0;exitDy=0;exitPerimeter=0;strokeColor=#7EA6E0;" edge="1" parent="1" source="FnHoCbj98JzVe04_ML1R-87" target="FnHoCbj98JzVe04_ML1R-88">
          <mxGeometry relative="1" as="geometry" />
        </mxCell>
        <mxCell id="FnHoCbj98JzVe04_ML1R-87" value="" style="fontColor=#0066CC;verticalAlign=top;verticalLabelPosition=bottom;labelPosition=center;align=center;html=1;outlineConnect=0;fillColor=#CCCCCC;strokeColor=#6881B3;gradientColor=none;gradientDirection=north;strokeWidth=2;shape=mxgraph.networks.switch;" vertex="1" parent="1">
          <mxGeometry x="94.5" y="480" width="76" height="20" as="geometry" />
        </mxCell>
        <mxCell id="FnHoCbj98JzVe04_ML1R-88" value="Kali Linux&lt;div&gt;10.0.0.2&lt;/div&gt;" style="image;sketch=0;aspect=fixed;html=1;points=[];align=center;fontSize=12;image=img/lib/mscae/Virtual_Machine_2.svg;" vertex="1" parent="1">
          <mxGeometry x="108" y="540" width="50" height="46" as="geometry" />
        </mxCell>
        <mxCell id="FnHoCbj98JzVe04_ML1R-89" value="Metasploitable 2&lt;div&gt;10.6.6.12&lt;/div&gt;" style="image;sketch=0;aspect=fixed;html=1;points=[];align=center;fontSize=12;image=img/lib/mscae/Virtual_Machine_2.svg;" vertex="1" parent="1">
          <mxGeometry x="275" y="540" width="50" height="46" as="geometry" />
        </mxCell>
        <mxCell id="FnHoCbj98JzVe04_ML1R-122" value="" style="edgeStyle=none;shape=link;rounded=0;orthogonalLoop=1;jettySize=auto;html=1;strokeColor=#7EA6E0;" edge="1" parent="1" source="FnHoCbj98JzVe04_ML1R-90">
          <mxGeometry relative="1" as="geometry">
            <mxPoint x="240" y="663" as="targetPoint" />
          </mxGeometry>
        </mxCell>
        <mxCell id="FnHoCbj98JzVe04_ML1R-90" value="Chronos 1&lt;div&gt;10.6.6.13&lt;/div&gt;" style="image;sketch=0;aspect=fixed;html=1;points=[];align=center;fontSize=12;image=img/lib/mscae/Virtual_Machine_2.svg;" vertex="1" parent="1">
          <mxGeometry x="275" y="640" width="50" height="46" as="geometry" />
        </mxCell>
        <mxCell id="FnHoCbj98JzVe04_ML1R-91" value="Tsurugi Linux&lt;div&gt;10.10.10.2&lt;/div&gt;" style="image;sketch=0;aspect=fixed;html=1;points=[];align=center;fontSize=12;image=img/lib/mscae/Virtual_Machine_2.svg;" vertex="1" parent="1">
          <mxGeometry x="455" y="540" width="50" height="46" as="geometry" />
        </mxCell>
        <mxCell id="FnHoCbj98JzVe04_ML1R-92" value="Splunk&lt;div&gt;10.10.10.12&lt;/div&gt;" style="image;sketch=0;aspect=fixed;html=1;points=[];align=center;fontSize=12;image=img/lib/mscae/Virtual_Machine_2.svg;" vertex="1" parent="1">
          <mxGeometry x="455" y="640" width="50" height="46" as="geometry" />
        </mxCell>
        <mxCell id="FnHoCbj98JzVe04_ML1R-93" value="Flare VM&lt;div&gt;10.99.99.11&lt;/div&gt;" style="image;sketch=0;aspect=fixed;html=1;points=[];align=center;fontSize=12;image=img/lib/mscae/Virtual_Machine_2.svg;" vertex="1" parent="1">
          <mxGeometry x="805" y="540" width="50" height="46" as="geometry" />
        </mxCell>
        <mxCell id="FnHoCbj98JzVe04_ML1R-94" value="REMnux&lt;div&gt;10.99.99.12&lt;/div&gt;" style="image;sketch=0;aspect=fixed;html=1;points=[];align=center;fontSize=12;image=img/lib/mscae/Virtual_Machine_2.svg;" vertex="1" parent="1">
          <mxGeometry x="805" y="640" width="50" height="46" as="geometry" />
        </mxCell>
        <mxCell id="FnHoCbj98JzVe04_ML1R-97" value="Win Server 2019&lt;div&gt;10.80.80.2&lt;/div&gt;" style="image;sketch=0;aspect=fixed;html=1;points=[];align=center;fontSize=12;image=img/lib/mscae/Virtual_Machine_2.svg;" vertex="1" parent="1">
          <mxGeometry x="635" y="540" width="50" height="46" as="geometry" />
        </mxCell>
        <mxCell id="FnHoCbj98JzVe04_ML1R-98" value="Win 10 Enterprise&lt;div&gt;10.80.80.11&lt;/div&gt;" style="image;sketch=0;aspect=fixed;html=1;points=[];align=center;fontSize=12;image=img/lib/mscae/Virtual_Machine_2.svg;" vertex="1" parent="1">
          <mxGeometry x="635" y="640" width="50" height="46" as="geometry" />
        </mxCell>
        <mxCell id="FnHoCbj98JzVe04_ML1R-144" value="" style="edgeStyle=none;shape=link;rounded=0;orthogonalLoop=1;jettySize=auto;html=1;strokeColor=#7EA6E0;" edge="1" parent="1" source="FnHoCbj98JzVe04_ML1R-99" target="FnHoCbj98JzVe04_ML1R-143">
          <mxGeometry relative="1" as="geometry" />
        </mxCell>
        <mxCell id="FnHoCbj98JzVe04_ML1R-99" value="Win 10 Enterprise&lt;div&gt;10.80.80.12&lt;/div&gt;" style="image;sketch=0;aspect=fixed;html=1;points=[];align=center;fontSize=12;image=img/lib/mscae/Virtual_Machine_2.svg;" vertex="1" parent="1">
          <mxGeometry x="634" y="740" width="50" height="46" as="geometry" />
        </mxCell>
        <mxCell id="FnHoCbj98JzVe04_ML1R-106" style="edgeStyle=orthogonalEdgeStyle;shape=link;rounded=0;orthogonalLoop=1;jettySize=auto;html=1;exitX=0.5;exitY=0;exitDx=0;exitDy=0;entryX=0.369;entryY=1.038;entryDx=0;entryDy=0;entryPerimeter=0;strokeColor=#7EA6E0;" edge="1" parent="1" source="FnHoCbj98JzVe04_ML1R-66" target="69ecfefc5c41e42c-3">
          <mxGeometry relative="1" as="geometry">
            <Array as="points">
              <mxPoint x="480" y="360" />
            </Array>
          </mxGeometry>
        </mxCell>
        <mxCell id="FnHoCbj98JzVe04_ML1R-116" style="edgeStyle=none;shape=link;rounded=0;orthogonalLoop=1;jettySize=auto;html=1;exitX=0.5;exitY=1;exitDx=0;exitDy=0;entryX=0.5;entryY=0;entryDx=0;entryDy=0;entryPerimeter=0;strokeColor=#7EA6E0;" edge="1" parent="1" source="FnHoCbj98JzVe04_ML1R-58" target="FnHoCbj98JzVe04_ML1R-87">
          <mxGeometry relative="1" as="geometry" />
        </mxCell>
        <mxCell id="FnHoCbj98JzVe04_ML1R-124" style="edgeStyle=none;shape=link;rounded=0;orthogonalLoop=1;jettySize=auto;html=1;strokeColor=#7EA6E0;" edge="1" parent="1" source="FnHoCbj98JzVe04_ML1R-121">
          <mxGeometry relative="1" as="geometry">
            <mxPoint x="240" y="650" as="targetPoint" />
          </mxGeometry>
        </mxCell>
        <mxCell id="FnHoCbj98JzVe04_ML1R-121" value="" style="shape=waypoint;sketch=0;size=6;pointerEvents=1;points=[];fillColor=default;resizable=0;rotatable=0;perimeter=centerPerimeter;snapToPoint=1;verticalAlign=top;labelBackgroundColor=default;strokeColor=#7EA6E0;" vertex="1" parent="1">
          <mxGeometry x="230" y="653" width="20" height="20" as="geometry" />
        </mxCell>
        <mxCell id="FnHoCbj98JzVe04_ML1R-127" style="edgeStyle=orthogonalEdgeStyle;shape=link;rounded=0;orthogonalLoop=1;jettySize=auto;html=1;exitDx=0;exitDy=0;exitPerimeter=0;strokeColor=#7EA6E0;" edge="1" parent="1" source="FnHoCbj98JzVe04_ML1R-130">
          <mxGeometry relative="1" as="geometry">
            <mxPoint x="480" y="520" as="targetPoint" />
            <Array as="points">
              <mxPoint x="420" y="520" />
              <mxPoint x="420" y="520" />
            </Array>
          </mxGeometry>
        </mxCell>
        <mxCell id="FnHoCbj98JzVe04_ML1R-128" value="" style="edgeStyle=none;shape=link;rounded=0;orthogonalLoop=1;jettySize=auto;html=1;strokeColor=#7EA6E0;" edge="1" parent="1">
          <mxGeometry relative="1" as="geometry">
            <mxPoint x="455" y="663" as="sourcePoint" />
            <mxPoint x="420" y="663" as="targetPoint" />
          </mxGeometry>
        </mxCell>
        <mxCell id="FnHoCbj98JzVe04_ML1R-129" style="edgeStyle=none;shape=link;rounded=0;orthogonalLoop=1;jettySize=auto;html=1;strokeColor=#7EA6E0;" edge="1" parent="1" source="FnHoCbj98JzVe04_ML1R-130">
          <mxGeometry relative="1" as="geometry">
            <mxPoint x="420" y="650" as="targetPoint" />
          </mxGeometry>
        </mxCell>
        <mxCell id="FnHoCbj98JzVe04_ML1R-130" value="" style="shape=waypoint;sketch=0;size=6;pointerEvents=1;points=[];fillColor=default;resizable=0;rotatable=0;perimeter=centerPerimeter;snapToPoint=1;verticalAlign=top;labelBackgroundColor=default;strokeColor=#7EA6E0;" vertex="1" parent="1">
          <mxGeometry x="410" y="653" width="20" height="20" as="geometry" />
        </mxCell>
        <mxCell id="FnHoCbj98JzVe04_ML1R-131" style="edgeStyle=orthogonalEdgeStyle;shape=link;rounded=0;orthogonalLoop=1;jettySize=auto;html=1;exitDx=0;exitDy=0;exitPerimeter=0;strokeColor=#7EA6E0;" edge="1" parent="1" source="FnHoCbj98JzVe04_ML1R-134">
          <mxGeometry relative="1" as="geometry">
            <mxPoint x="660" y="520" as="targetPoint" />
            <Array as="points">
              <mxPoint x="600" y="520" />
              <mxPoint x="600" y="520" />
            </Array>
          </mxGeometry>
        </mxCell>
        <mxCell id="FnHoCbj98JzVe04_ML1R-132" value="" style="edgeStyle=none;shape=link;rounded=0;orthogonalLoop=1;jettySize=auto;html=1;strokeColor=#7EA6E0;" edge="1" parent="1">
          <mxGeometry relative="1" as="geometry">
            <mxPoint x="635" y="663" as="sourcePoint" />
            <mxPoint x="600" y="663" as="targetPoint" />
          </mxGeometry>
        </mxCell>
        <mxCell id="FnHoCbj98JzVe04_ML1R-133" style="edgeStyle=none;shape=link;rounded=0;orthogonalLoop=1;jettySize=auto;html=1;strokeColor=#7EA6E0;" edge="1" parent="1" source="FnHoCbj98JzVe04_ML1R-134">
          <mxGeometry relative="1" as="geometry">
            <mxPoint x="600" y="650" as="targetPoint" />
          </mxGeometry>
        </mxCell>
        <mxCell id="FnHoCbj98JzVe04_ML1R-134" value="" style="shape=waypoint;sketch=0;size=6;pointerEvents=1;points=[];fillColor=default;resizable=0;rotatable=0;perimeter=centerPerimeter;snapToPoint=1;verticalAlign=top;labelBackgroundColor=default;strokeColor=#7EA6E0;" vertex="1" parent="1">
          <mxGeometry x="590" y="653" width="20" height="20" as="geometry" />
        </mxCell>
        <mxCell id="FnHoCbj98JzVe04_ML1R-135" style="edgeStyle=orthogonalEdgeStyle;shape=link;rounded=0;orthogonalLoop=1;jettySize=auto;html=1;exitDx=0;exitDy=0;exitPerimeter=0;strokeColor=#7EA6E0;" edge="1" parent="1" source="FnHoCbj98JzVe04_ML1R-138">
          <mxGeometry relative="1" as="geometry">
            <mxPoint x="830" y="520" as="targetPoint" />
            <Array as="points">
              <mxPoint x="770" y="520" />
              <mxPoint x="770" y="520" />
            </Array>
          </mxGeometry>
        </mxCell>
        <mxCell id="FnHoCbj98JzVe04_ML1R-136" value="" style="edgeStyle=none;shape=link;rounded=0;orthogonalLoop=1;jettySize=auto;html=1;strokeColor=#7EA6E0;" edge="1" parent="1">
          <mxGeometry relative="1" as="geometry">
            <mxPoint x="805" y="663" as="sourcePoint" />
            <mxPoint x="770" y="663" as="targetPoint" />
          </mxGeometry>
        </mxCell>
        <mxCell id="FnHoCbj98JzVe04_ML1R-137" style="edgeStyle=none;shape=link;rounded=0;orthogonalLoop=1;jettySize=auto;html=1;strokeColor=#7EA6E0;" edge="1" parent="1" source="FnHoCbj98JzVe04_ML1R-138">
          <mxGeometry relative="1" as="geometry">
            <mxPoint x="770" y="650" as="targetPoint" />
          </mxGeometry>
        </mxCell>
        <mxCell id="FnHoCbj98JzVe04_ML1R-138" value="" style="shape=waypoint;sketch=0;size=6;pointerEvents=1;points=[];fillColor=default;resizable=0;rotatable=0;perimeter=centerPerimeter;snapToPoint=1;verticalAlign=top;labelBackgroundColor=default;strokeColor=#7EA6E0;" vertex="1" parent="1">
          <mxGeometry x="760" y="653" width="20" height="20" as="geometry" />
        </mxCell>
        <mxCell id="FnHoCbj98JzVe04_ML1R-145" value="" style="edgeStyle=none;shape=link;rounded=0;orthogonalLoop=1;jettySize=auto;html=1;strokeColor=#7EA6E0;" edge="1" parent="1" source="FnHoCbj98JzVe04_ML1R-143" target="FnHoCbj98JzVe04_ML1R-134">
          <mxGeometry relative="1" as="geometry" />
        </mxCell>
        <mxCell id="FnHoCbj98JzVe04_ML1R-143" value="" style="shape=waypoint;sketch=0;size=6;pointerEvents=1;points=[];fillColor=default;resizable=0;rotatable=0;perimeter=centerPerimeter;snapToPoint=1;verticalAlign=top;labelBackgroundColor=default;strokeColor=#7EA6E0;" vertex="1" parent="1">
          <mxGeometry x="590" y="753" width="20" height="20" as="geometry" />
        </mxCell>
        <mxCell id="FnHoCbj98JzVe04_ML1R-146" value="" style="shape=waypoint;sketch=0;size=6;pointerEvents=1;points=[];fillColor=default;resizable=0;rotatable=0;perimeter=centerPerimeter;snapToPoint=1;verticalAlign=top;labelBackgroundColor=#ffffff;strokeColor=#7EA6E0;" vertex="1" parent="1">
          <mxGeometry x="290" y="350" width="20" height="20" as="geometry" />
        </mxCell>
        <mxCell id="FnHoCbj98JzVe04_ML1R-148" value="" style="shape=waypoint;sketch=0;size=6;pointerEvents=1;points=[];fillColor=default;resizable=0;rotatable=0;perimeter=centerPerimeter;snapToPoint=1;verticalAlign=top;labelBackgroundColor=#ffffff;strokeColor=#7EA6E0;" vertex="1" parent="1">
          <mxGeometry x="649" y="350" width="20" height="20" as="geometry" />
        </mxCell>
        <mxCell id="FnHoCbj98JzVe04_ML1R-151" value="Interfaces" style="swimlane;fontStyle=0;childLayout=stackLayout;horizontal=1;startSize=40;horizontalStack=0;resizeParent=1;resizeParentMax=0;resizeLast=0;collapsible=1;marginBottom=0;whiteSpace=wrap;html=1;strokeColor=#A680B8;" vertex="1" parent="1">
          <mxGeometry x="870" y="10" width="200" height="400" as="geometry" />
        </mxCell>
        <mxCell id="FnHoCbj98JzVe04_ML1R-152" value="&lt;div style=&quot;&quot;&gt;&lt;b style=&quot;background-color: initial;&quot;&gt;WLAN&lt;/b&gt;&lt;/div&gt;&lt;div style=&quot;&quot;&gt;vtnet0 (WAN)&lt;/div&gt;&lt;div style=&quot;&quot;&gt;NAT&lt;/div&gt;" style="text;strokeColor=none;fillColor=none;align=left;verticalAlign=middle;spacingLeft=4;spacingRight=4;overflow=hidden;points=[[0,0.5],[1,0.5]];portConstraint=eastwest;rotatable=0;whiteSpace=wrap;html=1;" vertex="1" parent="FnHoCbj98JzVe04_ML1R-151">
          <mxGeometry y="40" width="200" height="60" as="geometry" />
        </mxCell>
        <mxCell id="FnHoCbj98JzVe04_ML1R-155" value="&lt;b&gt;LAN&lt;/b&gt;&lt;div&gt;vtnet1 (LAN)&lt;/div&gt;&lt;div&gt;Internal Network (LAN 0)&lt;/div&gt;" style="text;strokeColor=none;fillColor=none;align=left;verticalAlign=middle;spacingLeft=4;spacingRight=4;overflow=hidden;points=[[0,0.5],[1,0.5]];portConstraint=eastwest;rotatable=0;whiteSpace=wrap;html=1;" vertex="1" parent="FnHoCbj98JzVe04_ML1R-151">
          <mxGeometry y="100" width="200" height="60" as="geometry" />
        </mxCell>
        <mxCell id="FnHoCbj98JzVe04_ML1R-156" value="&lt;b&gt;CYBER_RANGE&lt;/b&gt;&lt;div&gt;vtnet2 (OPT1)&lt;/div&gt;&lt;div&gt;Internal Network (LAN 1)&lt;/div&gt;" style="text;strokeColor=none;fillColor=none;align=left;verticalAlign=middle;spacingLeft=4;spacingRight=4;overflow=hidden;points=[[0,0.5],[1,0.5]];portConstraint=eastwest;rotatable=0;whiteSpace=wrap;html=1;" vertex="1" parent="FnHoCbj98JzVe04_ML1R-151">
          <mxGeometry y="160" width="200" height="60" as="geometry" />
        </mxCell>
        <mxCell id="FnHoCbj98JzVe04_ML1R-158" value="&lt;b&gt;SECURITY&lt;/b&gt;&lt;div&gt;vtnet5 (OPT 4)&lt;/div&gt;&lt;div&gt;Internal Network (LAN 4)&lt;/div&gt;" style="text;strokeColor=none;fillColor=none;align=left;verticalAlign=middle;spacingLeft=4;spacingRight=4;overflow=hidden;points=[[0,0.5],[1,0.5]];portConstraint=eastwest;rotatable=0;whiteSpace=wrap;html=1;" vertex="1" parent="FnHoCbj98JzVe04_ML1R-151">
          <mxGeometry y="220" width="200" height="60" as="geometry" />
        </mxCell>
        <mxCell id="FnHoCbj98JzVe04_ML1R-160" value="&lt;b&gt;AD_LAB&lt;/b&gt;&lt;div&gt;vtnet3 (OPT 2)&lt;/div&gt;&lt;div&gt;Internal Network (LAN 2)&lt;/div&gt;" style="text;strokeColor=none;fillColor=none;align=left;verticalAlign=middle;spacingLeft=4;spacingRight=4;overflow=hidden;points=[[0,0.5],[1,0.5]];portConstraint=eastwest;rotatable=0;whiteSpace=wrap;html=1;" vertex="1" parent="FnHoCbj98JzVe04_ML1R-151">
          <mxGeometry y="280" width="200" height="60" as="geometry" />
        </mxCell>
        <mxCell id="FnHoCbj98JzVe04_ML1R-157" value="&lt;b&gt;ISOLATED&lt;/b&gt;&lt;div&gt;vtnet4 (OPT 3)&lt;/div&gt;&lt;div&gt;Internal Network (LAN 3)&lt;/div&gt;" style="text;strokeColor=none;fillColor=none;align=left;verticalAlign=middle;spacingLeft=4;spacingRight=4;overflow=hidden;points=[[0,0.5],[1,0.5]];portConstraint=eastwest;rotatable=0;whiteSpace=wrap;html=1;" vertex="1" parent="FnHoCbj98JzVe04_ML1R-151">
          <mxGeometry y="340" width="200" height="60" as="geometry" />
        </mxCell>
        <mxCell id="FnHoCbj98JzVe04_ML1R-161" value="&lt;h1&gt;&lt;span style=&quot;background-color: rgb(166, 128, 184);&quot;&gt;&lt;font color=&quot;#f8ebff&quot;&gt;Cybersecurity Homelab Network Diagram&lt;/font&gt;&lt;/span&gt;&lt;/h1&gt;" style="shape=ext;double=1;rounded=0;whiteSpace=wrap;html=1;strokeColor=#A680B8;fillColor=#A680B8;" vertex="1" parent="1">
          <mxGeometry x="300" y="10" width="500" height="60" as="geometry" />
        </mxCell>
      </root>
    </mxGraphModel>
  </diagram>
</mxfile>
